<svg xmlns="http://www.w3.org/2000/svg" width="944" height="98" viewBox="0 0 944 98">
  <rect width="944" height="98" fill="#0d1117"/>
  <rect x="4" y="4" width="16" height="16" rx="3" fill="#1e1b4b" opacity="0.7"/>
  <rect x="22" y="4" width="16" height="16" rx="3" fill="#ec4899" opacity="0.8"/>
  <rect x="40" y="4" width="16" height="16" rx="3" fill="#a5b4fc" opacity="0.9"/>
  <rect x="58" y="4" width="16" height="16" rx="3" fill="#0f172a" opacity="0.9"/>
  <rect x="76" y="4" width="16" height="16" rx="3" fill="#0f172a" opacity="0.7"/>
  <rect x="94" y="4" width="16" height="16" rx="3" fill="#1e40af" opacity="0.8"/>
  <rect x="112" y="4" width="16" height="16" rx="3" fill="#be185d" opacity="0.7"/>
  <rect x="130" y="4" width="16" height="16" rx="3" fill="#f472b6" opacity="1.0"/>
  <rect x="148" y="4" width="16" height="16" rx="3" fill="#be185d" opacity="0.8"/>
  <rect x="166" y="4" width="16" height="16" rx="3" fill="#ec4899" opacity="1.0"/>
  <rect x="184" y="4" width="16" height="16" rx="3" fill="#831843" opacity="0.7"/>
  <rect x="202" y="4" width="16" height="16" rx="3" fill="#4f46e5" opacity="0.9"/>
  <rect x="220" y="4" width="16" height="16" rx="3" fill="#831843" opacity="0.9"/>
  <rect x="238" y="4" width="16" height="16" rx="3" fill="#1d4ed8" opacity="1.0"/>
  <rect x="256" y="4" width="16" height="16" rx="3" fill="#1e3a5f" opacity="0.9"/>
  <rect x="274" y="4" width="16" height="16" rx="3" fill="#1d4ed8" opacity="0.6"/>
  <rect x="292" y="4" width="16" height="16" rx="3" fill="#0f172a" opacity="0.8"/>
  <rect x="310" y="4" width="16" height="16" rx="3" fill="#f472b6" opacity="0.9"/>
  <rect x="328" y="4" width="16" height="16" rx="3" fill="#be185d" opacity="0.8"/>
  <rect x="346" y="4" width="16" height="16" rx="3" fill="#be185d" opacity="0.7"/>
  <rect x="364" y="4" width="16" height="16" rx="3" fill="#ec4899" opacity="0.8"/>
  <rect x="382" y="4" width="16" height="16" rx="3" fill="#818cf8" opacity="0.7"/>
  <rect x="400" y="4" width="16" height="16" rx="3" fill="#db2777" opacity="0.7"/>
  <rect x="418" y="4" width="16" height="16" rx="3" fill="#4f46e5" opacity="0.9"/>
  <rect x="436" y="4" width="16" height="16" rx="3" fill="#be185d" opacity="1.0"/>
  <rect x="454" y="4" width="16" height="16" rx="3" fill="#1a1a2e" opacity="0.8"/>
  <rect x="472" y="4" width="16" height="16" rx="3" fill="#0ea5e9" opacity="0.8"/>
  <rect x="490" y="4" width="16" height="16" rx="3" fill="#818cf8" opacity="0.7"/>
  <rect x="508" y="4" width="16" height="16" rx="3" fill="#9d174d" opacity="0.7"/>
  <rect x="526" y="4" width="16" height="16" rx="3" fill="#db2777" opacity="0.7"/>
  <rect x="544" y="4" width="16" height="16" rx="3" fill="#ec4899" opacity="0.6"/>
  <rect x="562" y="4" width="16" height="16" rx="3" fill="#6366f1" opacity="0.9"/>
  <rect x="580" y="4" width="16" height="16" rx="3" fill="#0ea5e9" opacity="0.7"/>
  <rect x="598" y="4" width="16" height="16" rx="3" fill="#6366f1" opacity="0.9"/>
  <rect x="616" y="4" width="16" height="16" rx="3" fill="#f472b6" opacity="0.8"/>
  <rect x="634" y="4" width="16" height="16" rx="3" fill="#4f46e5" opacity="0.8"/>
  <rect x="652" y="4" width="16" height="16" rx="3" fill="#1e40af" opacity="0.8"/>
  <rect x="670" y="4" width="16" height="16" rx="3" fill="#1a1a2e" opacity="0.7"/>
  <rect x="688" y="4" width="16" height="16" rx="3" fill="#1a1a2e" opacity="1.0"/>
  <rect x="706" y="4" width="16" height="16" rx="3" fill="#ec4899" opacity="0.8"/>
  <rect x="724" y="4" width="16" height="16" rx="3" fill="#1d4ed8" opacity="0.7"/>
  <rect x="742" y="4" width="16" height="16" rx="3" fill="#0284c7" opacity="0.8"/>
  <rect x="760" y="4" width="16" height="16" rx="3" fill="#1e40af" opacity="0.8"/>
  <rect x="778" y="4" width="16" height="16" rx="3" fill="#be185d" opacity="0.8"/>
  <rect x="796" y="4" width="16" height="16" rx="3" fill="#f472b6" opacity="0.7"/>
  <rect x="814" y="4" width="16" height="16" rx="3" fill="#38bdf8" opacity="0.7"/>
  <rect x="832" y="4" width="16" height="16" rx="3" fill="#1a1a2e" opacity="1.0"/>
  <rect x="850" y="4" width="16" height="16" rx="3" fill="#7dd3fc" opacity="0.8"/>
  <rect x="868" y="4" width="16" height="16" rx="3" fill="#4f46e5" opacity="0.6"/>
  <rect x="886" y="4" width="16" height="16" rx="3" fill="#a5b4fc" opacity="0.8"/>
  <rect x="904" y="4" width="16" height="16" rx="3" fill="#0284c7" opacity="0.9"/>
  <rect x="922" y="4" width="16" height="16" rx="3" fill="#be185d" opacity="0.7"/>
  <rect x="4" y="22" width="16" height="16" rx="3" fill="#7dd3fc" opacity="0.9"/>
  <rect x="22" y="22" width="16" height="16" rx="3" fill="#9d174d" opacity="0.9"/>
  <rect x="40" y="22" width="16" height="16" rx="3" fill="#831843" opacity="0.8"/>
  <rect x="58" y="22" width="16" height="16" rx="3" fill="#1a1a2e" opacity="0.8"/>
  <rect x="76" y="22" width="16" height="16" rx="3" fill="#be185d" opacity="0.6"/>
  <rect x="94" y="22" width="16" height="16" rx="3" fill="#0ea5e9" opacity="0.7"/>
  <rect x="112" y="22" width="16" height="16" rx="3" fill="#f472b6" opacity="0.9"/>
  <rect x="130" y="22" width="16" height="16" rx="3" fill="#1e3a5f" opacity="0.7"/>
  <rect x="148" y="22" width="16" height="16" rx="3" fill="#6366f1" opacity="0.8"/>
  <rect x="166" y="22" width="16" height="16" rx="3" fill="#0284c7" opacity="0.6"/>
  <rect x="184" y="22" width="16" height="16" rx="3" fill="#6366f1" opacity="1.0"/>
  <rect x="202" y="22" width="16" height="16" rx="3" fill="#831843" opacity="0.7"/>
  <rect x="220" y="22" width="16" height="16" rx="3" fill="#0284c7" opacity="0.8"/>
  <rect x="238" y="22" width="16" height="16" rx="3" fill="#a5b4fc" opacity="0.9"/>
  <rect x="256" y="22" width="16" height="16" rx="3" fill="#1e1b4b" opacity="0.6"/>
  <rect x="274" y="22" width="16" height="16" rx="3" fill="#1e40af" opacity="0.6"/>
  <rect x="292" y="22" width="16" height="16" rx="3" fill="#0ea5e9" opacity="0.9"/>
  <rect x="310" y="22" width="16" height="16" rx="3" fill="#831843" opacity="0.9"/>
  <rect x="328" y="22" width="16" height="16" rx="3" fill="#0284c7" opacity="0.9"/>
  <rect x="346" y="22" width="16" height="16" rx="3" fill="#0ea5e9" opacity="0.6"/>
  <rect x="364" y="22" width="16" height="16" rx="3" fill="#f472b6" opacity="0.8"/>
  <rect x="382" y="22" width="16" height="16" rx="3" fill="#831843" opacity="1.0"/>
  <rect x="400" y="22" width="16" height="16" rx="3" fill="#818cf8" opacity="0.8"/>
  <rect x="418" y="22" width="16" height="16" rx="3" fill="#0f172a" opacity="0.8"/>
  <rect x="436" y="22" width="16" height="16" rx="3" fill="#f472b6" opacity="0.7"/>
  <rect x="454" y="22" width="16" height="16" rx="3" fill="#818cf8" opacity="0.7"/>
  <rect x="472" y="22" width="16" height="16" rx="3" fill="#1a1a2e" opacity="1.0"/>
  <rect x="490" y="22" width="16" height="16" rx="3" fill="#0284c7" opacity="0.7"/>
  <rect x="508" y="22" width="16" height="16" rx="3" fill="#0f172a" opacity="0.7"/>
  <rect x="526" y="22" width="16" height="16" rx="3" fill="#be185d" opacity="0.7"/>
  <rect x="544" y="22" width="16" height="16" rx="3" fill="#f472b6" opacity="0.6"/>
  <rect x="562" y="22" width="16" height="16" rx="3" fill="#9d174d" opacity="1.0"/>
  <rect x="580" y="22" width="16" height="16" rx="3" fill="#9d174d" opacity="0.7"/>
  <rect x="598" y="22" width="16" height="16" rx="3" fill="#0284c7" opacity="0.8"/>
  <rect x="616" y="22" width="16" height="16" rx="3" fill="#1e3a5f" opacity="0.8"/>
  <rect x="634" y="22" width="16" height="16" rx="3" fill="#0284c7" opacity="0.7"/>
  <rect x="652" y="22" width="16" height="16" rx="3" fill="#7dd3fc" opacity="0.8"/>
  <rect x="670" y="22" width="16" height="16" rx="3" fill="#f472b6" opacity="0.9"/>
  <rect x="688" y="22" width="16" height="16" rx="3" fill="#1d4ed8" opacity="0.7"/>
  <rect x="706" y="22" width="16" height="16" rx="3" fill="#1e40af" opacity="0.9"/>
  <rect x="724" y="22" width="16" height="16" rx="3" fill="#831843" opacity="0.9"/>
  <rect x="742" y="22" width="16" height="16" rx="3" fill="#a5b4fc" opacity="0.8"/>
  <rect x="760" y="22" width="16" height="16" rx="3" fill="#1e1b4b" opacity="0.7"/>
  <rect x="778" y="22" width="16" height="16" rx="3" fill="#9d174d" opacity="1.0"/>
  <rect x="796" y="22" width="16" height="16" rx="3" fill="#831843" opacity="0.9"/>
  <rect x="814" y="22" width="16" height="16" rx="3" fill="#1a1a2e" opacity="0.6"/>
  <rect x="832" y="22" width="16" height="16" rx="3" fill="#be185d" opacity="0.9"/>
  <rect x="850" y="22" width="16" height="16" rx="3" fill="#be185d" opacity="0.6"/>
  <rect x="868" y="22" width="16" height="16" rx="3" fill="#be185d" opacity="0.6"/>
  <rect x="886" y="22" width="16" height="16" rx="3" fill="#be185d" opacity="0.7"/>
  <rect x="904" y="22" width="16" height="16" rx="3" fill="#1d4ed8" opacity="0.8"/>
  <rect x="922" y="22" width="16" height="16" rx="3" fill="#be185d" opacity="0.6"/>
  <rect x="4" y="40" width="16" height="16" rx="3" fill="#818cf8" opacity="0.9"/>
  <rect x="22" y="40" width="16" height="16" rx="3" fill="#831843" opacity="0.9"/>
  <rect x="40" y="40" width="16" height="16" rx="3" fill="#1e1b4b" opacity="0.7"/>
  <rect x="58" y="40" width="16" height="16" rx="3" fill="#38bdf8" opacity="0.7"/>
  <rect x="76" y="40" width="16" height="16" rx="3" fill="#4f46e5" opacity="1.0"/>
  <rect x="94" y="40" width="16" height="16" rx="3" fill="#0ea5e9" opacity="1.0"/>
  <rect x="112" y="40" width="16" height="16" rx="3" fill="#6366f1" opacity="0.8"/>
  <rect x="130" y="40" width="16" height="16" rx="3" fill="#1a1a2e" opacity="0.8"/>
  <rect x="148" y="40" width="16" height="16" rx="3" fill="#1d4ed8" opacity="0.7"/>
  <rect x="166" y="40" width="16" height="16" rx="3" fill="#1d4ed8" opacity="0.8"/>
  <rect x="184" y="40" width="16" height="16" rx="3" fill="#0f172a" opacity="0.8"/>
  <rect x="202" y="40" width="16" height="16" rx="3" fill="#0284c7" opacity="0.8"/>
  <rect x="220" y="40" width="16" height="16" rx="3" fill="#831843" opacity="0.6"/>
  <rect x="238" y="40" width="16" height="16" rx="3" fill="#1e3a5f" opacity="0.9"/>
  <rect x="256" y="40" width="16" height="16" rx="3" fill="#1d4ed8" opacity="0.6"/>
  <rect x="274" y="40" width="16" height="16" rx="3" fill="#1a1a2e" opacity="0.6"/>
  <rect x="292" y="40" width="16" height="16" rx="3" fill="#ec4899" opacity="0.7"/>
  <rect x="310" y="40" width="16" height="16" rx="3" fill="#ec4899" opacity="0.7"/>
  <rect x="328" y="40" width="16" height="16" rx="3" fill="#1a1a2e" opacity="0.9"/>
  <rect x="346" y="40" width="16" height="16" rx="3" fill="#1e1b4b" opacity="0.7"/>
  <rect x="364" y="40" width="16" height="16" rx="3" fill="#1e1b4b" opacity="0.7"/>
  <rect x="382" y="40" width="16" height="16" rx="3" fill="#ec4899" opacity="0.7"/>
  <rect x="400" y="40" width="16" height="16" rx="3" fill="#a5b4fc" opacity="1.0"/>
  <rect x="418" y="40" width="16" height="16" rx="3" fill="#4f46e5" opacity="0.6"/>
  <rect x="436" y="40" width="16" height="16" rx="3" fill="#38bdf8" opacity="0.8"/>
  <rect x="454" y="40" width="16" height="16" rx="3" fill="#ec4899" opacity="0.8"/>
  <rect x="472" y="40" width="16" height="16" rx="3" fill="#1e40af" opacity="0.8"/>
  <rect x="490" y="40" width="16" height="16" rx="3" fill="#9d174d" opacity="0.8"/>
  <rect x="508" y="40" width="16" height="16" rx="3" fill="#7dd3fc" opacity="0.9"/>
  <rect x="526" y="40" width="16" height="16" rx="3" fill="#0f172a" opacity="0.8"/>
  <rect x="544" y="40" width="16" height="16" rx="3" fill="#0ea5e9" opacity="0.8"/>
  <rect x="562" y="40" width="16" height="16" rx="3" fill="#1a1a2e" opacity="0.8"/>
  <rect x="580" y="40" width="16" height="16" rx="3" fill="#1a1a2e" opacity="0.8"/>
  <rect x="598" y="40" width="16" height="16" rx="3" fill="#4f46e5" opacity="0.9"/>
  <rect x="616" y="40" width="16" height="16" rx="3" fill="#0f172a" opacity="0.7"/>
  <rect x="634" y="40" width="16" height="16" rx="3" fill="#831843" opacity="1.0"/>
  <rect x="652" y="40" width="16" height="16" rx="3" fill="#9d174d" opacity="1.0"/>
  <rect x="670" y="40" width="16" height="16" rx="3" fill="#1d4ed8" opacity="0.9"/>
  <rect x="688" y="40" width="16" height="16" rx="3" fill="#a5b4fc" opacity="0.7"/>
  <rect x="706" y="40" width="16" height="16" rx="3" fill="#6366f1" opacity="0.9"/>
  <rect x="724" y="40" width="16" height="16" rx="3" fill="#4f46e5" opacity="0.9"/>
  <rect x="742" y="40" width="16" height="16" rx="3" fill="#7dd3fc" opacity="0.8"/>
  <rect x="760" y="40" width="16" height="16" rx="3" fill="#db2777" opacity="0.8"/>
  <rect x="778" y="40" width="16" height="16" rx="3" fill="#0f172a" opacity="0.6"/>
  <rect x="796" y="40" width="16" height="16" rx="3" fill="#818cf8" opacity="0.8"/>
  <rect x="814" y="40" width="16" height="16" rx="3" fill="#1a1a2e" opacity="0.7"/>
  <rect x="832" y="40" width="16" height="16" rx="3" fill="#ec4899" opacity="0.9"/>
  <rect x="850" y="40" width="16" height="16" rx="3" fill="#38bdf8" opacity="0.7"/>
  <rect x="868" y="40" width="16" height="16" rx="3" fill="#1a1a2e" opacity="0.9"/>
  <rect x="886" y="40" width="16" height="16" rx="3" fill="#1d4ed8" opacity="0.8"/>
  <rect x="904" y="40" width="16" height="16" rx="3" fill="#1e40af" opacity="0.7"/>
  <rect x="922" y="40" width="16" height="16" rx="3" fill="#7dd3fc" opacity="0.6"/>
  <rect x="4" y="58" width="16" height="16" rx="3" fill="#1e40af" opacity="0.7"/>
  <rect x="22" y="58" width="16" height="16" rx="3" fill="#4f46e5" opacity="0.9"/>
  <rect x="40" y="58" width="16" height="16" rx="3" fill="#1e1b4b" opacity="0.6"/>
  <rect x="58" y="58" width="16" height="16" rx="3" fill="#1e1b4b" opacity="1.0"/>
  <rect x="76" y="58" width="16" height="16" rx="3" fill="#818cf8" opacity="0.9"/>
  <rect x="94" y="58" width="16" height="16" rx="3" fill="#db2777" opacity="0.6"/>
  <rect x="112" y="58" width="16" height="16" rx="3" fill="#6366f1" opacity="0.8"/>
  <rect x="130" y="58" width="16" height="16" rx="3" fill="#1e1b4b" opacity="0.7"/>
  <rect x="148" y="58" width="16" height="16" rx="3" fill="#818cf8" opacity="0.8"/>
  <rect x="166" y="58" width="16" height="16" rx="3" fill="#818cf8" opacity="0.8"/>
  <rect x="184" y="58" width="16" height="16" rx="3" fill="#831843" opacity="0.9"/>
  <rect x="202" y="58" width="16" height="16" rx="3" fill="#db2777" opacity="1.0"/>
  <rect x="220" y="58" width="16" height="16" rx="3" fill="#0f172a" opacity="0.9"/>
  <rect x="238" y="58" width="16" height="16" rx="3" fill="#a5b4fc" opacity="0.8"/>
  <rect x="256" y="58" width="16" height="16" rx="3" fill="#1e1b4b" opacity="0.9"/>
  <rect x="274" y="58" width="16" height="16" rx="3" fill="#1d4ed8" opacity="1.0"/>
  <rect x="292" y="58" width="16" height="16" rx="3" fill="#0284c7" opacity="0.8"/>
  <rect x="310" y="58" width="16" height="16" rx="3" fill="#1e3a5f" opacity="0.6"/>
  <rect x="328" y="58" width="16" height="16" rx="3" fill="#9d174d" opacity="0.7"/>
  <rect x="346" y="58" width="16" height="16" rx="3" fill="#ec4899" opacity="0.9"/>
  <rect x="364" y="58" width="16" height="16" rx="3" fill="#38bdf8" opacity="0.8"/>
  <rect x="382" y="58" width="16" height="16" rx="3" fill="#1a1a2e" opacity="0.6"/>
  <rect x="400" y="58" width="16" height="16" rx="3" fill="#831843" opacity="0.7"/>
  <rect x="418" y="58" width="16" height="16" rx="3" fill="#ec4899" opacity="0.6"/>
  <rect x="436" y="58" width="16" height="16" rx="3" fill="#ec4899" opacity="0.8"/>
  <rect x="454" y="58" width="16" height="16" rx="3" fill="#831843" opacity="0.9"/>
  <rect x="472" y="58" width="16" height="16" rx="3" fill="#1a1a2e" opacity="0.7"/>
  <rect x="490" y="58" width="16" height="16" rx="3" fill="#7dd3fc" opacity="0.8"/>
  <rect x="508" y="58" width="16" height="16" rx="3" fill="#7dd3fc" opacity="1.0"/>
  <rect x="526" y="58" width="16" height="16" rx="3" fill="#1e40af" opacity="0.8"/>
  <rect x="544" y="58" width="16" height="16" rx="3" fill="#db2777" opacity="0.7"/>
  <rect x="562" y="58" width="16" height="16" rx="3" fill="#831843" opacity="0.8"/>
  <rect x="580" y="58" width="16" height="16" rx="3" fill="#1e3a5f" opacity="0.9"/>
  <rect x="598" y="58" width="16" height="16" rx="3" fill="#6366f1" opacity="0.9"/>
  <rect x="616" y="58" width="16" height="16" rx="3" fill="#0284c7" opacity="1.0"/>
  <rect x="634" y="58" width="16" height="16" rx="3" fill="#38bdf8" opacity="0.9"/>
  <rect x="652" y="58" width="16" height="16" rx="3" fill="#a5b4fc" opacity="1.0"/>
  <rect x="670" y="58" width="16" height="16" rx="3" fill="#9d174d" opacity="0.7"/>
  <rect x="688" y="58" width="16" height="16" rx="3" fill="#4f46e5" opacity="0.9"/>
  <rect x="706" y="58" width="16" height="16" rx="3" fill="#f472b6" opacity="0.7"/>
  <rect x="724" y="58" width="16" height="16" rx="3" fill="#1e40af" opacity="1.0"/>
  <rect x="742" y="58" width="16" height="16" rx="3" fill="#be185d" opacity="0.8"/>
  <rect x="760" y="58" width="16" height="16" rx="3" fill="#4f46e5" opacity="0.9"/>
  <rect x="778" y="58" width="16" height="16" rx="3" fill="#38bdf8" opacity="0.8"/>
  <rect x="796" y="58" width="16" height="16" rx="3" fill="#0284c7" opacity="0.9"/>
  <rect x="814" y="58" width="16" height="16" rx="3" fill="#a5b4fc" opacity="0.8"/>
  <rect x="832" y="58" width="16" height="16" rx="3" fill="#1e3a5f" opacity="0.6"/>
  <rect x="850" y="58" width="16" height="16" rx="3" fill="#1e40af" opacity="0.9"/>
  <rect x="868" y="58" width="16" height="16" rx="3" fill="#9d174d" opacity="0.8"/>
  <rect x="886" y="58" width="16" height="16" rx="3" fill="#be185d" opacity="0.6"/>
  <rect x="904" y="58" width="16" height="16" rx="3" fill="#1d4ed8" opacity="1.0"/>
  <rect x="922" y="58" width="16" height="16" rx="3" fill="#db2777" opacity="0.6"/>
  <rect x="4" y="76" width="16" height="16" rx="3" fill="#1a1a2e" opacity="0.9"/>
  <rect x="22" y="76" width="16" height="16" rx="3" fill="#831843" opacity="0.9"/>
  <rect x="40" y="76" width="16" height="16" rx="3" fill="#6366f1" opacity="0.9"/>
  <rect x="58" y="76" width="16" height="16" rx="3" fill="#4f46e5" opacity="0.9"/>
  <rect x="76" y="76" width="16" height="16" rx="3" fill="#1e40af" opacity="1.0"/>
  <rect x="94" y="76" width="16" height="16" rx="3" fill="#1d4ed8" opacity="0.6"/>
  <rect x="112" y="76" width="16" height="16" rx="3" fill="#ec4899" opacity="0.9"/>
  <rect x="130" y="76" width="16" height="16" rx="3" fill="#1a1a2e" opacity="1.0"/>
  <rect x="148" y="76" width="16" height="16" rx="3" fill="#9d174d" opacity="0.7"/>
  <rect x="166" y="76" width="16" height="16" rx="3" fill="#db2777" opacity="0.7"/>
  <rect x="184" y="76" width="16" height="16" rx="3" fill="#818cf8" opacity="0.8"/>
  <rect x="202" y="76" width="16" height="16" rx="3" fill="#831843" opacity="0.8"/>
  <rect x="220" y="76" width="16" height="16" rx="3" fill="#db2777" opacity="0.9"/>
  <rect x="238" y="76" width="16" height="16" rx="3" fill="#be185d" opacity="0.8"/>
  <rect x="256" y="76" width="16" height="16" rx="3" fill="#a5b4fc" opacity="0.6"/>
  <rect x="274" y="76" width="16" height="16" rx="3" fill="#a5b4fc" opacity="0.9"/>
  <rect x="292" y="76" width="16" height="16" rx="3" fill="#f472b6" opacity="0.9"/>
  <rect x="310" y="76" width="16" height="16" rx="3" fill="#be185d" opacity="1.0"/>
  <rect x="328" y="76" width="16" height="16" rx="3" fill="#1e3a5f" opacity="0.9"/>
  <rect x="346" y="76" width="16" height="16" rx="3" fill="#1a1a2e" opacity="0.7"/>
  <rect x="364" y="76" width="16" height="16" rx="3" fill="#1e1b4b" opacity="0.6"/>
  <rect x="382" y="76" width="16" height="16" rx="3" fill="#1e40af" opacity="0.7"/>
  <rect x="400" y="76" width="16" height="16" rx="3" fill="#4f46e5" opacity="0.8"/>
  <rect x="418" y="76" width="16" height="16" rx="3" fill="#9d174d" opacity="1.0"/>
  <rect x="436" y="76" width="16" height="16" rx="3" fill="#1e3a5f" opacity="0.8"/>
  <rect x="454" y="76" width="16" height="16" rx="3" fill="#1e40af" opacity="0.9"/>
  <rect x="472" y="76" width="16" height="16" rx="3" fill="#0ea5e9" opacity="0.8"/>
  <rect x="490" y="76" width="16" height="16" rx="3" fill="#1e40af" opacity="1.0"/>
  <rect x="508" y="76" width="16" height="16" rx="3" fill="#ec4899" opacity="0.9"/>
  <rect x="526" y="76" width="16" height="16" rx="3" fill="#4f46e5" opacity="0.7"/>
  <rect x="544" y="76" width="16" height="16" rx="3" fill="#a5b4fc" opacity="0.9"/>
  <rect x="562" y="76" width="16" height="16" rx="3" fill="#7dd3fc" opacity="0.9"/>
  <rect x="580" y="76" width="16" height="16" rx="3" fill="#1e3a5f" opacity="0.7"/>
  <rect x="598" y="76" width="16" height="16" rx="3" fill="#1a1a2e" opacity="0.7"/>
  <rect x="616" y="76" width="16" height="16" rx="3" fill="#831843" opacity="0.8"/>
  <rect x="634" y="76" width="16" height="16" rx="3" fill="#a5b4fc" opacity="1.0"/>
  <rect x="652" y="76" width="16" height="16" rx="3" fill="#9d174d" opacity="0.8"/>
  <rect x="670" y="76" width="16" height="16" rx="3" fill="#ec4899" opacity="0.8"/>
  <rect x="688" y="76" width="16" height="16" rx="3" fill="#0f172a" opacity="0.9"/>
  <rect x="706" y="76" width="16" height="16" rx="3" fill="#6366f1" opacity="0.8"/>
  <rect x="724" y="76" width="16" height="16" rx="3" fill="#db2777" opacity="0.6"/>
  <rect x="742" y="76" width="16" height="16" rx="3" fill="#38bdf8" opacity="0.6"/>
  <rect x="760" y="76" width="16" height="16" rx="3" fill="#1e40af" opacity="0.7"/>
  <rect x="778" y="76" width="16" height="16" rx="3" fill="#1e1b4b" opacity="0.6"/>
  <rect x="796" y="76" width="16" height="16" rx="3" fill="#db2777" opacity="0.7"/>
  <rect x="814" y="76" width="16" height="16" rx="3" fill="#1d4ed8" opacity="0.9"/>
  <rect x="832" y="76" width="16" height="16" rx="3" fill="#0ea5e9" opacity="1.0"/>
  <rect x="850" y="76" width="16" height="16" rx="3" fill="#a5b4fc" opacity="0.9"/>
  <rect x="868" y="76" width="16" height="16" rx="3" fill="#0284c7" opacity="0.7"/>
  <rect x="886" y="76" width="16" height="16" rx="3" fill="#818cf8" opacity="0.6"/>
  <rect x="904" y="76" width="16" height="16" rx="3" fill="#1e1b4b" opacity="0.7"/>
  <rect x="922" y="76" width="16" height="16" rx="3" fill="#4f46e5" opacity="0.7"/>
</svg>