<svg xmlns="http://www.w3.org/2000/svg" width="900" height="220" viewBox="0 0 900 220">
  <rect width="900" height="220" fill="#0d1117" rx="0"/>
  <rect x="10" y="8" width="14" height="14" rx="2" fill="#ec4899" opacity="0.9"/>
  <rect x="27" y="8" width="14" height="14" rx="2" fill="#38bdf8" opacity="0.7"/>
  <rect x="44" y="8" width="14" height="14" rx="2" fill="#818cf8" opacity="0.8"/>
  <rect x="61" y="8" width="14" height="14" rx="2" fill="#ec4899" opacity="0.5"/>
  <rect x="78" y="8" width="14" height="14" rx="2" fill="#38bdf8" opacity="0.9"/>
  <rect x="95" y="8" width="14" height="14" rx="2" fill="#f472b6" opacity="0.7"/>
  <rect x="112" y="8" width="14" height="14" rx="2" fill="#7dd3fc" opacity="0.6"/>
  <rect x="129" y="8" width="14" height="14" rx="2" fill="#ec4899" opacity="0.8"/>
  <rect x="146" y="8" width="14" height="14" rx="2" fill="#818cf8" opacity="0.9"/>
  <rect x="163" y="8" width="14" height="14" rx="2" fill="#38bdf8" opacity="0.5"/>
  <rect x="180" y="8" width="14" height="14" rx="2" fill="#f472b6" opacity="0.8"/>
  <rect x="197" y="8" width="14" height="14" rx="2" fill="#7dd3fc" opacity="0.7"/>
  <rect x="214" y="8" width="14" height="14" rx="2" fill="#ec4899" opacity="0.6"/>
  <rect x="231" y="8" width="14" height="14" rx="2" fill="#818cf8" opacity="0.9"/>
  <rect x="248" y="8" width="14" height="14" rx="2" fill="#38bdf8" opacity="0.8"/>
  <rect x="265" y="8" width="14" height="14" rx="2" fill="#f472b6" opacity="0.5"/>
  <rect x="282" y="8" width="14" height="14" rx="2" fill="#7dd3fc" opacity="0.9"/>
  <rect x="299" y="8" width="14" height="14" rx="2" fill="#ec4899" opacity="0.7"/>
  <rect x="316" y="8" width="14" height="14" rx="2" fill="#818cf8" opacity="0.6"/>
  <rect x="333" y="8" width="14" height="14" rx="2" fill="#38bdf8" opacity="0.9"/>
  <rect x="350" y="8" width="14" height="14" rx="2" fill="#f472b6" opacity="0.8"/>
  <rect x="367" y="8" width="14" height="14" rx="2" fill="#7dd3fc" opacity="0.5"/>
  <rect x="384" y="8" width="14" height="14" rx="2" fill="#ec4899" opacity="0.9"/>
  <rect x="401" y="8" width="14" height="14" rx="2" fill="#818cf8" opacity="0.7"/>
  <rect x="418" y="8" width="14" height="14" rx="2" fill="#38bdf8" opacity="0.8"/>
  <rect x="435" y="8" width="14" height="14" rx="2" fill="#f472b6" opacity="0.6"/>
  <rect x="452" y="8" width="14" height="14" rx="2" fill="#7dd3fc" opacity="0.9"/>
  <rect x="469" y="8" width="14" height="14" rx="2" fill="#ec4899" opacity="0.7"/>
  <rect x="486" y="8" width="14" height="14" rx="2" fill="#818cf8" opacity="0.8"/>
  <rect x="503" y="8" width="14" height="14" rx="2" fill="#38bdf8" opacity="0.5"/>
  <rect x="520" y="8" width="14" height="14" rx="2" fill="#f472b6" opacity="0.9"/>
  <rect x="537" y="8" width="14" height="14" rx="2" fill="#7dd3fc" opacity="0.7"/>
  <rect x="554" y="8" width="14" height="14" rx="2" fill="#ec4899" opacity="0.6"/>
  <rect x="571" y="8" width="14" height="14" rx="2" fill="#818cf8" opacity="0.8"/>
  <rect x="588" y="8" width="14" height="14" rx="2" fill="#38bdf8" opacity="0.9"/>
  <rect x="605" y="8" width="14" height="14" rx="2" fill="#f472b6" opacity="0.5"/>
  <rect x="622" y="8" width="14" height="14" rx="2" fill="#7dd3fc" opacity="0.8"/>
  <rect x="639" y="8" width="14" height="14" rx="2" fill="#ec4899" opacity="0.7"/>
  <rect x="656" y="8" width="14" height="14" rx="2" fill="#818cf8" opacity="0.9"/>
  <rect x="673" y="8" width="14" height="14" rx="2" fill="#38bdf8" opacity="0.6"/>
  <rect x="690" y="8" width="14" height="14" rx="2" fill="#f472b6" opacity="0.8"/>
  <rect x="707" y="8" width="14" height="14" rx="2" fill="#7dd3fc" opacity="0.5"/>
  <rect x="724" y="8" width="14" height="14" rx="2" fill="#ec4899" opacity="0.9"/>
  <rect x="741" y="8" width="14" height="14" rx="2" fill="#818cf8" opacity="0.7"/>
  <rect x="758" y="8" width="14" height="14" rx="2" fill="#38bdf8" opacity="0.8"/>
  <rect x="775" y="8" width="14" height="14" rx="2" fill="#f472b6" opacity="0.6"/>
  <rect x="792" y="8" width="14" height="14" rx="2" fill="#7dd3fc" opacity="0.9"/>
  <rect x="809" y="8" width="14" height="14" rx="2" fill="#ec4899" opacity="0.7"/>
  <rect x="826" y="8" width="14" height="14" rx="2" fill="#818cf8" opacity="0.5"/>
  <rect x="843" y="8" width="14" height="14" rx="2" fill="#38bdf8" opacity="0.8"/>
  <rect x="860" y="8" width="14" height="14" rx="2" fill="#f472b6" opacity="0.9"/>
  <rect x="877" y="8" width="14" height="14" rx="2" fill="#7dd3fc" opacity="0.6"/>
  <rect x="10" y="25" width="14" height="14" rx="2" fill="#38bdf8" opacity="0.6"/>
  <rect x="27" y="25" width="14" height="14" rx="2" fill="#ec4899" opacity="0.9"/>
  <rect x="44" y="25" width="14" height="14" rx="2" fill="#7dd3fc" opacity="0.5"/>
  <rect x="61" y="25" width="14" height="14" rx="2" fill="#818cf8" opacity="0.8"/>
  <rect x="78" y="25" width="14" height="14" rx="2" fill="#f472b6" opacity="0.7"/>
  <rect x="95" y="25" width="14" height="14" rx="2" fill="#38bdf8" opacity="0.9"/>
  <rect x="112" y="25" width="14" height="14" rx="2" fill="#ec4899" opacity="0.6"/>
  <rect x="129" y="25" width="14" height="14" rx="2" fill="#7dd3fc" opacity="0.8"/>
  <rect x="146" y="25" width="14" height="14" rx="2" fill="#818cf8" opacity="0.5"/>
  <rect x="163" y="25" width="14" height="14" rx="2" fill="#f472b6" opacity="0.9"/>
  <rect x="180" y="25" width="14" height="14" rx="2" fill="#38bdf8" opacity="0.7"/>
  <rect x="197" y="25" width="14" height="14" rx="2" fill="#ec4899" opacity="0.8"/>
  <rect x="214" y="25" width="14" height="14" rx="2" fill="#7dd3fc" opacity="0.5"/>
  <rect x="231" y="25" width="14" height="14" rx="2" fill="#818cf8" opacity="0.9"/>
  <rect x="248" y="25" width="14" height="14" rx="2" fill="#f472b6" opacity="0.6"/>
  <rect x="265" y="25" width="14" height="14" rx="2" fill="#38bdf8" opacity="0.8"/>
  <rect x="282" y="25" width="14" height="14" rx="2" fill="#ec4899" opacity="0.7"/>
  <rect x="299" y="25" width="14" height="14" rx="2" fill="#7dd3fc" opacity="0.9"/>
  <rect x="316" y="25" width="14" height="14" rx="2" fill="#818cf8" opacity="0.5"/>
  <rect x="333" y="25" width="14" height="14" rx="2" fill="#f472b6" opacity="0.8"/>
  <rect x="350" y="25" width="14" height="14" rx="2" fill="#38bdf8" opacity="0.6"/>
  <rect x="367" y="25" width="14" height="14" rx="2" fill="#ec4899" opacity="0.9"/>
  <rect x="384" y="25" width="14" height="14" rx="2" fill="#7dd3fc" opacity="0.7"/>
  <rect x="401" y="25" width="14" height="14" rx="2" fill="#818cf8" opacity="0.8"/>
  <rect x="418" y="25" width="14" height="14" rx="2" fill="#f472b6" opacity="0.5"/>
  <rect x="435" y="25" width="14" height="14" rx="2" fill="#38bdf8" opacity="0.9"/>
  <rect x="452" y="25" width="14" height="14" rx="2" fill="#ec4899" opacity="0.6"/>
  <rect x="469" y="25" width="14" height="14" rx="2" fill="#7dd3fc" opacity="0.8"/>
  <rect x="486" y="25" width="14" height="14" rx="2" fill="#818cf8" opacity="0.7"/>
  <rect x="503" y="25" width="14" height="14" rx="2" fill="#f472b6" opacity="0.9"/>
  <rect x="520" y="25" width="14" height="14" rx="2" fill="#38bdf8" opacity="0.5"/>
  <rect x="537" y="25" width="14" height="14" rx="2" fill="#ec4899" opacity="0.8"/>
  <rect x="554" y="25" width="14" height="14" rx="2" fill="#7dd3fc" opacity="0.6"/>
  <rect x="571" y="25" width="14" height="14" rx="2" fill="#818cf8" opacity="0.9"/>
  <rect x="588" y="25" width="14" height="14" rx="2" fill="#f472b6" opacity="0.7"/>
  <rect x="605" y="25" width="14" height="14" rx="2" fill="#38bdf8" opacity="0.8"/>
  <rect x="622" y="25" width="14" height="14" rx="2" fill="#ec4899" opacity="0.5"/>
  <rect x="639" y="25" width="14" height="14" rx="2" fill="#7dd3fc" opacity="0.9"/>
  <rect x="656" y="25" width="14" height="14" rx="2" fill="#818cf8" opacity="0.6"/>
  <rect x="673" y="25" width="14" height="14" rx="2" fill="#f472b6" opacity="0.8"/>
  <rect x="690" y="25" width="14" height="14" rx="2" fill="#38bdf8" opacity="0.7"/>
  <rect x="707" y="25" width="14" height="14" rx="2" fill="#ec4899" opacity="0.9"/>
  <rect x="724" y="25" width="14" height="14" rx="2" fill="#7dd3fc" opacity="0.5"/>
  <rect x="741" y="25" width="14" height="14" rx="2" fill="#818cf8" opacity="0.8"/>
  <rect x="758" y="25" width="14" height="14" rx="2" fill="#f472b6" opacity="0.6"/>
  <rect x="775" y="25" width="14" height="14" rx="2" fill="#38bdf8" opacity="0.9"/>
  <rect x="792" y="25" width="14" height="14" rx="2" fill="#ec4899" opacity="0.7"/>
  <rect x="809" y="25" width="14" height="14" rx="2" fill="#7dd3fc" opacity="0.8"/>
  <rect x="826" y="25" width="14" height="14" rx="2" fill="#818cf8" opacity="0.5"/>
  <rect x="843" y="25" width="14" height="14" rx="2" fill="#f472b6" opacity="0.9"/>
  <rect x="860" y="25" width="14" height="14" rx="2" fill="#38bdf8" opacity="0.6"/>
  <rect x="877" y="25" width="14" height="14" rx="2" fill="#ec4899" opacity="0.8"/>
  <rect x="10" y="42" width="14" height="14" rx="2" fill="#818cf8" opacity="0.7"/>
  <rect x="27" y="42" width="14" height="14" rx="2" fill="#7dd3fc" opacity="0.9"/>
  <rect x="44" y="42" width="14" height="14" rx="2" fill="#f472b6" opacity="0.6"/>
  <rect x="61" y="42" width="14" height="14" rx="2" fill="#38bdf8" opacity="0.8"/>
  <rect x="78" y="42" width="14" height="14" rx="2" fill="#ec4899" opacity="0.5"/>
  <rect x="95" y="42" width="14" height="14" rx="2" fill="#818cf8" opacity="0.9"/>
  <rect x="112" y="42" width="14" height="14" rx="2" fill="#7dd3fc" opacity="0.7"/>
  <rect x="129" y="42" width="14" height="14" rx="2" fill="#f472b6" opacity="0.8"/>
  <rect x="146" y="42" width="14" height="14" rx="2" fill="#38bdf8" opacity="0.6"/>
  <rect x="163" y="42" width="14" height="14" rx="2" fill="#ec4899" opacity="0.9"/>
  <rect x="180" y="42" width="14" height="14" rx="2" fill="#818cf8" opacity="0.5"/>
  <rect x="197" y="42" width="14" height="14" rx="2" fill="#7dd3fc" opacity="0.8"/>
  <rect x="214" y="42" width="14" height="14" rx="2" fill="#f472b6" opacity="0.7"/>
  <rect x="231" y="42" width="14" height="14" rx="2" fill="#38bdf8" opacity="0.9"/>
  <rect x="248" y="42" width="14" height="14" rx="2" fill="#ec4899" opacity="0.6"/>
  <rect x="265" y="42" width="14" height="14" rx="2" fill="#818cf8" opacity="0.8"/>
  <rect x="282" y="42" width="14" height="14" rx="2" fill="#7dd3fc" opacity="0.5"/>
  <rect x="299" y="42" width="14" height="14" rx="2" fill="#f472b6" opacity="0.9"/>
  <rect x="316" y="42" width="14" height="14" rx="2" fill="#38bdf8" opacity="0.7"/>
  <rect x="333" y="42" width="14" height="14" rx="2" fill="#ec4899" opacity="0.8"/>
  <rect x="350" y="42" width="14" height="14" rx="2" fill="#818cf8" opacity="0.5"/>
  <rect x="367" y="42" width="14" height="14" rx="2" fill="#7dd3fc" opacity="0.9"/>
  <rect x="384" y="42" width="14" height="14" rx="2" fill="#f472b6" opacity="0.6"/>
  <rect x="401" y="42" width="14" height="14" rx="2" fill="#38bdf8" opacity="0.8"/>
  <rect x="418" y="42" width="14" height="14" rx="2" fill="#ec4899" opacity="0.7"/>
  <rect x="435" y="42" width="14" height="14" rx="2" fill="#818cf8" opacity="0.9"/>
  <rect x="452" y="42" width="14" height="14" rx="2" fill="#7dd3fc" opacity="0.5"/>
  <rect x="469" y="42" width="14" height="14" rx="2" fill="#f472b6" opacity="0.8"/>
  <rect x="486" y="42" width="14" height="14" rx="2" fill="#38bdf8" opacity="0.6"/>
  <rect x="503" y="42" width="14" height="14" rx="2" fill="#ec4899" opacity="0.9"/>
  <rect x="520" y="42" width="14" height="14" rx="2" fill="#818cf8" opacity="0.7"/>
  <rect x="537" y="42" width="14" height="14" rx="2" fill="#7dd3fc" opacity="0.8"/>
  <rect x="554" y="42" width="14" height="14" rx="2" fill="#f472b6" opacity="0.5"/>
  <rect x="571" y="42" width="14" height="14" rx="2" fill="#38bdf8" opacity="0.9"/>
  <rect x="588" y="42" width="14" height="14" rx="2" fill="#ec4899" opacity="0.6"/>
  <rect x="605" y="42" width="14" height="14" rx="2" fill="#818cf8" opacity="0.8"/>
  <rect x="622" y="42" width="14" height="14" rx="2" fill="#7dd3fc" opacity="0.7"/>
  <rect x="639" y="42" width="14" height="14" rx="2" fill="#f472b6" opacity="0.9"/>
  <rect x="656" y="42" width="14" height="14" rx="2" fill="#38bdf8" opacity="0.5"/>
  <rect x="673" y="42" width="14" height="14" rx="2" fill="#ec4899" opacity="0.8"/>
  <rect x="690" y="42" width="14" height="14" rx="2" fill="#818cf8" opacity="0.6"/>
  <rect x="707" y="42" width="14" height="14" rx="2" fill="#7dd3fc" opacity="0.9"/>
  <rect x="724" y="42" width="14" height="14" rx="2" fill="#f472b6" opacity="0.7"/>
  <rect x="741" y="42" width="14" height="14" rx="2" fill="#38bdf8" opacity="0.8"/>
  <rect x="758" y="42" width="14" height="14" rx="2" fill="#ec4899" opacity="0.5"/>
  <rect x="775" y="42" width="14" height="14" rx="2" fill="#818cf8" opacity="0.9"/>
  <rect x="792" y="42" width="14" height="14" rx="2" fill="#7dd3fc" opacity="0.6"/>
  <rect x="809" y="42" width="14" height="14" rx="2" fill="#f472b6" opacity="0.8"/>
  <rect x="826" y="42" width="14" height="14" rx="2" fill="#38bdf8" opacity="0.7"/>
  <rect x="843" y="42" width="14" height="14" rx="2" fill="#ec4899" opacity="0.9"/>
  <rect x="860" y="42" width="14" height="14" rx="2" fill="#818cf8" opacity="0.5"/>
  <rect x="877" y="42" width="14" height="14" rx="2" fill="#7dd3fc" opacity="0.8"/>
  <rect x="10" y="59" width="14" height="14" rx="2" fill="#f472b6" opacity="0.8"/>
  <rect x="27" y="59" width="14" height="14" rx="2" fill="#38bdf8" opacity="0.6"/>
  <rect x="44" y="59" width="14" height="14" rx="2" fill="#ec4899" opacity="0.9"/>
  <rect x="61" y="59" width="14" height="14" rx="2" fill="#7dd3fc" opacity="0.5"/>
  <rect x="78" y="59" width="14" height="14" rx="2" fill="#818cf8" opacity="0.8"/>
  <rect x="95" y="59" width="14" height="14" rx="2" fill="#f472b6" opacity="0.7"/>
  <rect x="112" y="59" width="14" height="14" rx="2" fill="#38bdf8" opacity="0.9"/>
  <rect x="129" y="59" width="14" height="14" rx="2" fill="#ec4899" opacity="0.6"/>
  <rect x="146" y="59" width="14" height="14" rx="2" fill="#7dd3fc" opacity="0.8"/>
  <rect x="163" y="59" width="14" height="14" rx="2" fill="#818cf8" opacity="0.5"/>
  <rect x="180" y="59" width="14" height="14" rx="2" fill="#f472b6" opacity="0.9"/>
  <rect x="197" y="59" width="14" height="14" rx="2" fill="#38bdf8" opacity="0.7"/>
  <rect x="214" y="59" width="14" height="14" rx="2" fill="#ec4899" opacity="0.8"/>
  <rect x="231" y="59" width="14" height="14" rx="2" fill="#7dd3fc" opacity="0.6"/>
  <rect x="248" y="59" width="14" height="14" rx="2" fill="#818cf8" opacity="0.9"/>
  <rect x="265" y="59" width="14" height="14" rx="2" fill="#f472b6" opacity="0.5"/>
  <rect x="282" y="59" width="14" height="14" rx="2" fill="#38bdf8" opacity="0.8"/>
  <rect x="299" y="59" width="14" height="14" rx="2" fill="#ec4899" opacity="0.7"/>
  <rect x="316" y="59" width="14" height="14" rx="2" fill="#7dd3fc" opacity="0.9"/>
  <rect x="333" y="59" width="14" height="14" rx="2" fill="#818cf8" opacity="0.6"/>
  <rect x="350" y="59" width="14" height="14" rx="2" fill="#f472b6" opacity="0.8"/>
  <rect x="367" y="59" width="14" height="14" rx="2" fill="#38bdf8" opacity="0.5"/>
  <rect x="384" y="59" width="14" height="14" rx="2" fill="#ec4899" opacity="0.9"/>
  <rect x="401" y="59" width="14" height="14" rx="2" fill="#7dd3fc" opacity="0.7"/>
  <rect x="418" y="59" width="14" height="14" rx="2" fill="#818cf8" opacity="0.8"/>
  <rect x="435" y="59" width="14" height="14" rx="2" fill="#f472b6" opacity="0.6"/>
  <rect x="452" y="59" width="14" height="14" rx="2" fill="#38bdf8" opacity="0.9"/>
  <rect x="469" y="59" width="14" height="14" rx="2" fill="#ec4899" opacity="0.5"/>
  <rect x="486" y="59" width="14" height="14" rx="2" fill="#7dd3fc" opacity="0.8"/>
  <rect x="503" y="59" width="14" height="14" rx="2" fill="#818cf8" opacity="0.7"/>
  <rect x="520" y="59" width="14" height="14" rx="2" fill="#f472b6" opacity="0.9"/>
  <rect x="537" y="59" width="14" height="14" rx="2" fill="#38bdf8" opacity="0.6"/>
  <rect x="554" y="59" width="14" height="14" rx="2" fill="#ec4899" opacity="0.8"/>
  <rect x="571" y="59" width="14" height="14" rx="2" fill="#7dd3fc" opacity="0.5"/>
  <rect x="588" y="59" width="14" height="14" rx="2" fill="#818cf8" opacity="0.9"/>
  <rect x="605" y="59" width="14" height="14" rx="2" fill="#f472b6" opacity="0.7"/>
  <rect x="622" y="59" width="14" height="14" rx="2" fill="#38bdf8" opacity="0.8"/>
  <rect x="639" y="59" width="14" height="14" rx="2" fill="#ec4899" opacity="0.6"/>
  <rect x="656" y="59" width="14" height="14" rx="2" fill="#7dd3fc" opacity="0.9"/>
  <rect x="673" y="59" width="14" height="14" rx="2" fill="#818cf8" opacity="0.5"/>
  <rect x="690" y="59" width="14" height="14" rx="2" fill="#f472b6" opacity="0.8"/>
  <rect x="707" y="59" width="14" height="14" rx="2" fill="#38bdf8" opacity="0.7"/>
  <rect x="724" y="59" width="14" height="14" rx="2" fill="#ec4899" opacity="0.9"/>
  <rect x="741" y="59" width="14" height="14" rx="2" fill="#7dd3fc" opacity="0.6"/>
  <rect x="758" y="59" width="14" height="14" rx="2" fill="#818cf8" opacity="0.8"/>
  <rect x="775" y="59" width="14" height="14" rx="2" fill="#f472b6" opacity="0.5"/>
  <rect x="792" y="59" width="14" height="14" rx="2" fill="#38bdf8" opacity="0.9"/>
  <rect x="809" y="59" width="14" height="14" rx="2" fill="#ec4899" opacity="0.7"/>
  <rect x="826" y="59" width="14" height="14" rx="2" fill="#7dd3fc" opacity="0.8"/>
  <rect x="843" y="59" width="14" height="14" rx="2" fill="#818cf8" opacity="0.6"/>
  <rect x="860" y="59" width="14" height="14" rx="2" fill="#f472b6" opacity="0.9"/>
  <rect x="877" y="59" width="14" height="14" rx="2" fill="#38bdf8" opacity="0.5"/>
  <rect x="10" y="76" width="14" height="14" rx="2" fill="#7dd3fc" opacity="0.9"/>
  <rect x="27" y="76" width="14" height="14" rx="2" fill="#818cf8" opacity="0.6"/>
  <rect x="44" y="76" width="14" height="14" rx="2" fill="#38bdf8" opacity="0.8"/>
  <rect x="61" y="76" width="14" height="14" rx="2" fill="#f472b6" opacity="0.7"/>
  <rect x="78" y="76" width="14" height="14" rx="2" fill="#ec4899" opacity="0.9"/>
  <rect x="95" y="76" width="14" height="14" rx="2" fill="#7dd3fc" opacity="0.5"/>
  <rect x="112" y="76" width="14" height="14" rx="2" fill="#818cf8" opacity="0.8"/>
  <rect x="129" y="76" width="14" height="14" rx="2" fill="#38bdf8" opacity="0.6"/>
  <rect x="146" y="76" width="14" height="14" rx="2" fill="#f472b6" opacity="0.9"/>
  <rect x="163" y="76" width="14" height="14" rx="2" fill="#ec4899" opacity="0.7"/>
  <rect x="180" y="76" width="14" height="14" rx="2" fill="#7dd3fc" opacity="0.8"/>
  <rect x="197" y="76" width="14" height="14" rx="2" fill="#818cf8" opacity="0.5"/>
  <rect x="214" y="76" width="14" height="14" rx="2" fill="#38bdf8" opacity="0.9"/>
  <rect x="231" y="76" width="14" height="14" rx="2" fill="#f472b6" opacity="0.6"/>
  <rect x="248" y="76" width="14" height="14" rx="2" fill="#ec4899" opacity="0.8"/>
  <rect x="265" y="76" width="14" height="14" rx="2" fill="#7dd3fc" opacity="0.7"/>
  <rect x="282" y="76" width="14" height="14" rx="2" fill="#818cf8" opacity="0.9"/>
  <rect x="299" y="76" width="14" height="14" rx="2" fill="#38bdf8" opacity="0.5"/>
  <rect x="316" y="76" width="14" height="14" rx="2" fill="#f472b6" opacity="0.8"/>
  <rect x="333" y="76" width="14" height="14" rx="2" fill="#ec4899" opacity="0.6"/>
  <rect x="350" y="76" width="14" height="14" rx="2" fill="#7dd3fc" opacity="0.9"/>
  <rect x="367" y="76" width="14" height="14" rx="2" fill="#818cf8" opacity="0.7"/>
  <rect x="384" y="76" width="14" height="14" rx="2" fill="#38bdf8" opacity="0.8"/>
  <rect x="401" y="76" width="14" height="14" rx="2" fill="#f472b6" opacity="0.5"/>
  <rect x="418" y="76" width="14" height="14" rx="2" fill="#ec4899" opacity="0.9"/>
  <rect x="435" y="76" width="14" height="14" rx="2" fill="#7dd3fc" opacity="0.6"/>
  <rect x="452" y="76" width="14" height="14" rx="2" fill="#818cf8" opacity="0.8"/>
  <rect x="469" y="76" width="14" height="14" rx="2" fill="#38bdf8" opacity="0.7"/>
  <rect x="486" y="76" width="14" height="14" rx="2" fill="#f472b6" opacity="0.9"/>
  <rect x="503" y="76" width="14" height="14" rx="2" fill="#ec4899" opacity="0.5"/>
  <rect x="520" y="76" width="14" height="14" rx="2" fill="#7dd3fc" opacity="0.8"/>
  <rect x="537" y="76" width="14" height="14" rx="2" fill="#818cf8" opacity="0.6"/>
  <rect x="554" y="76" width="14" height="14" rx="2" fill="#38bdf8" opacity="0.9"/>
  <rect x="571" y="76" width="14" height="14" rx="2" fill="#f472b6" opacity="0.7"/>
  <rect x="588" y="76" width="14" height="14" rx="2" fill="#ec4899" opacity="0.8"/>
  <rect x="605" y="76" width="14" height="14" rx="2" fill="#7dd3fc" opacity="0.5"/>
  <rect x="622" y="76" width="14" height="14" rx="2" fill="#818cf8" opacity="0.9"/>
  <rect x="639" y="76" width="14" height="14" rx="2" fill="#38bdf8" opacity="0.6"/>
  <rect x="656" y="76" width="14" height="14" rx="2" fill="#f472b6" opacity="0.8"/>
  <rect x="673" y="76" width="14" height="14" rx="2" fill="#ec4899" opacity="0.7"/>
  <rect x="690" y="76" width="14" height="14" rx="2" fill="#7dd3fc" opacity="0.9"/>
  <rect x="707" y="76" width="14" height="14" rx="2" fill="#818cf8" opacity="0.5"/>
  <rect x="724" y="76" width="14" height="14" rx="2" fill="#38bdf8" opacity="0.8"/>
  <rect x="741" y="76" width="14" height="14" rx="2" fill="#f472b6" opacity="0.6"/>
  <rect x="758" y="76" width="14" height="14" rx="2" fill="#ec4899" opacity="0.9"/>
  <rect x="775" y="76" width="14" height="14" rx="2" fill="#7dd3fc" opacity="0.7"/>
  <rect x="792" y="76" width="14" height="14" rx="2" fill="#818cf8" opacity="0.8"/>
  <rect x="809" y="76" width="14" height="14" rx="2" fill="#38bdf8" opacity="0.5"/>
  <rect x="826" y="76" width="14" height="14" rx="2" fill="#f472b6" opacity="0.9"/>
  <rect x="843" y="76" width="14" height="14" rx="2" fill="#ec4899" opacity="0.6"/>
  <rect x="860" y="76" width="14" height="14" rx="2" fill="#7dd3fc" opacity="0.8"/>
  <rect x="877" y="76" width="14" height="14" rx="2" fill="#818cf8" opacity="0.7"/>


  <!-- Name - pink color, no gradient (GitHub safe) -->
  <text x="450" y="165"
        text-anchor="middle"
        font-family="Arial, sans-serif"
        font-size="46"
        font-weight="bold"
        fill="#ec4899">Nagaraj Hegde</text>

  <!-- Subtitle -->
  <text x="450" y="200"
        text-anchor="middle"
        font-family="Arial, sans-serif"
        font-size="15"
        fill="#94a3b8"
        letter-spacing="2">Java Backend Developer  |  Spring Boot Developer</text>
</svg>
